<?xml version="1.0" standalone="no"?><!DOCTYPE svg PUBLIC "-//W3C//DTD SVG 1.1//EN" "http://www.w3.org/Graphics/SVG/1.1/DTD/svg11.dtd"><svg t="1688671708587" class="icon" viewBox="0 0 1024 1024" version="1.1" xmlns="http://www.w3.org/2000/svg" p-id="2368" xmlns:xlink="http://www.w3.org/1999/xlink" width="32" height="32"><path d="M566.252625 155.723667c-9.759271-5.41022-21.686928-5.098111-31.150464 0.814552L246.26887 337.006454 93.000114 337.006454c-16.954137 0-30.699186 13.745049-30.699186 30.699186l0 306.126142c0 16.954137 13.745049 30.699186 30.699186 30.699186l153.408949 0 289.382806 170.410158c4.804423 2.830465 10.190083 4.245697 15.57779 4.245697 5.255701 0 10.512425-1.347694 15.234983-4.047176 9.56382-5.466502 15.464203-15.637142 15.464203-26.65201l0-665.916509C582.067822 171.414021 576.011896 161.133887 566.252625 155.723667zM123.6993 398.404826l100.685143 0 0 244.727771-100.685143 0L123.6993 398.404826zM520.66945 794.784528 285.782815 656.465253 285.782815 384.715035l234.887658-146.761552L520.670473 794.784528z" p-id="2369" fill="#515151"></path><path d="M714.696492 279.369755c-16.189727 5.03569-25.231661 22.242584-20.195971 38.432311 19.72525 63.419402 29.728068 129.58945 29.728068 196.672288 0 67.082838-10.001795 133.25391-29.728068 196.673311-5.03569 16.189727 4.007267 33.396621 20.195971 38.432311 3.036149 0.944512 6.107091 1.39272 9.126868 1.39272 13.087063 0 25.214265-8.435113 29.305443-21.589714 21.564132-69.331042 32.498158-141.636834 32.498158-214.909651 0-73.272817-10.934027-145.57861-32.498158-214.908628C748.093113 283.377022 730.889289 274.335089 714.696492 279.369755z" p-id="2370" fill="#515151"></path><path d="M886.633423 162.048723c-6.675026-15.58393-24.721031-22.808472-40.307008-16.131399-15.584953 6.67605-22.807449 24.723078-16.131399 40.308031 44.48619 103.848183 67.041906 214.287481 67.041906 328.248999 0 113.987101-22.564925 224.446865-67.068512 328.312444-6.677073 15.58393 0.542352 33.630958 16.127306 40.309054 3.943822 1.689479 8.042163 2.489704 12.07706 2.489704 11.911284 0 23.2444-6.974855 28.231995-18.615986 47.796586-111.550609 72.031547-230.146681 72.031547-352.494193C958.636317 392.153448 934.411589 273.580912 886.633423 162.048723z" p-id="2371" fill="#515151"></path></svg>